<svg width="178" height="42" viewBox="0 0 178 42" fill="none" xmlns="http://www.w3.org/2000/svg" role="img" aria-labelledby="title">
  <title id="title">F1 Knowledge Hub</title>
  <rect width="178" height="42" rx="8" fill="#101010"/>
  <path d="M13 29V10h26v6H20v4h16v6H20v3h-7Z" fill="#f5f5f5"/>
  <path d="M39 29V10h14v19h-7V16h-7v13Z" fill="#e10600"/>
  <path d="M63 29V10h7v7l7-7h9l-9 9 10 10h-9l-8-8v8h-7Z" fill="#f5f5f5"/>
  <path d="M91 29V10h7v7h9v-7h7v19h-7v-7h-9v7h-7Z" fill="#f5f5f5"/>
  <path d="M123 29V10h7v13h15v6h-22Z" fill="#f5f5f5"/>
  <path d="M148 29V10h17c4 0 7 2 7 6 0 2-1 4-3 5 3 1 4 3 4 5 0 2-1 3-2 4-1 1-3 1-5 1h-18Zm7-12h8c1 0 2-1 2-2s-1-2-2-2h-8v4Zm0 8h9c1 0 2-1 2-2s-1-2-2-2h-9v4Z" fill="#f5f5f5"/>
  <path d="M13 35h152" stroke="#8fd3ff" stroke-width="3" stroke-linecap="square"/>
</svg>

